<?xml version="1.0" encoding="UTF-8" standalone="no"?>
<!-- Created with Inkscape (http://www.inkscape.org/) -->

<svg
   xmlns:osb="http://www.openswatchbook.org/uri/2009/osb"
   xmlns:dc="http://purl.org/dc/elements/1.1/"
   xmlns:cc="http://creativecommons.org/ns#"
   xmlns:rdf="http://www.w3.org/1999/02/22-rdf-syntax-ns#"
   xmlns:svg="http://www.w3.org/2000/svg"
   xmlns="http://www.w3.org/2000/svg"
   xmlns:sodipodi="http://sodipodi.sourceforge.net/DTD/sodipodi-0.dtd"
   xmlns:inkscape="http://www.inkscape.org/namespaces/inkscape"
   width="210mm"
   height="297mm"
   viewBox="0 0 744.09448819 1052.3622047"
   id="svg2"
   version="1.1"
   inkscape:version="0.91 r13725"
   sodipodi:docname="army.svg">
  <defs
     id="defs4">
    <linearGradient
       id="linearGradient5592"
       osb:paint="solid">
      <stop
         style="stop-color:#00ffff;stop-opacity:1;"
         offset="0"
         id="stop5594" />
    </linearGradient>
  </defs>
  <sodipodi:namedview
     id="base"
     pagecolor="#ffffff"
     bordercolor="#666666"
     borderopacity="1.0"
     inkscape:pageopacity="0.0"
     inkscape:pageshadow="2"
     inkscape:zoom="0.7"
     inkscape:cx="394.94491"
     inkscape:cy="631.40086"
     inkscape:document-units="px"
     inkscape:current-layer="layer1"
     showgrid="false"
     inkscape:window-width="1920"
     inkscape:window-height="1018"
     inkscape:window-x="-8"
     inkscape:window-y="-8"
     inkscape:window-maximized="1" />
  <metadata
     id="metadata7">
    <rdf:RDF>
      <cc:Work
         rdf:about="">
        <dc:format>image/svg+xml</dc:format>
        <dc:type
           rdf:resource="http://purl.org/dc/dcmitype/StillImage" />
        <dc:title></dc:title>
      </cc:Work>
    </rdf:RDF>
  </metadata>
  <g
     inkscape:label="Layer 1"
     inkscape:groupmode="layer"
     id="layer1">
    <circle
       r="136.37059"
       cy="577.82031"
       cx="200.42862"
       id="circle5622"
       style="fill:#c8b7b7;fill-opacity:0.17419356;stroke:#000000;stroke-opacity:0.43870969" />
    <g
       id="g5696"
       transform="translate(-212.13203,-251.10845)">
      <path
         style="fill:#c8b7b7;fill-opacity:1;stroke:none;stroke-opacity:0.43870969"
         d="m 517.14285,811.64791 a 42.857143,42.142857 0 0 1 -42.85714,42.14286 42.857143,42.142857 0 0 1 -42.85715,-42.14286 42.857143,42.142857 0 0 1 42.85715,-42.14286 42.857143,42.142857 0 0 1 42.85714,42.14286 z"
         id="ellipse5632"
         inkscape:connector-curvature="0" />
      <path
         id="ellipse5634"
         d="m 474.28516,822.41016 a 55.667019,57.095592 0 0 0 -55.66602,57.0957 55.667019,57.095592 0 0 0 0.67383,8.57031 l 109.95898,0 a 55.667019,57.095592 0 0 0 0.70117,-8.57031 55.667019,57.095592 0 0 0 -55.66796,-57.0957 z"
         style="fill:#c8b7b7;fill-opacity:1;stroke:none;stroke-width:1.09452748;stroke-opacity:0.43870969"
         inkscape:connector-curvature="0" />
    </g>
    <g
       id="g5700"
       transform="translate(-212.13203,-252.53814)">
      <path
         style="fill:#c8b7b7;fill-opacity:1;stroke:none;stroke-opacity:0.43870969"
         d="M 395.71429,813.0765 A 42.857143,42.142857 0 0 1 352.85715,855.21936 42.857143,42.142857 0 0 1 310,813.0765 a 42.857143,42.142857 0 0 1 42.85715,-42.14286 42.857143,42.142857 0 0 1 42.85714,42.14286 z"
         id="ellipse5636"
         inkscape:connector-curvature="0" />
      <path
         id="ellipse5638"
         d="m 352.85742,823.83789 a 55.667019,57.095592 0 0 0 -55.66797,57.0957 55.667019,57.095592 0 0 0 0.67578,8.57227 l 109.95704,0 a 55.667019,57.095592 0 0 0 0.70117,-8.57227 55.667019,57.095592 0 0 0 -55.66602,-57.0957 z"
         style="fill:#c8b7b7;fill-opacity:1;stroke:none;stroke-width:1.09452748;stroke-opacity:0.43870969"
         inkscape:connector-curvature="0" />
    </g>
    <g
       id="g5704"
       transform="translate(-212.84297,-252.53814)"
       style="fill:#9c8573;fill-opacity:1">
      <path
         inkscape:connector-curvature="0"
         id="path5628"
         d="m 457.14285,840.21932 a 42.857143,42.142857 0 0 1 -42.85714,42.14286 42.857143,42.142857 0 0 1 -42.85715,-42.14286 42.857143,42.142857 0 0 1 42.85715,-42.14285 42.857143,42.142857 0 0 1 42.85714,42.14285 z"
         style="fill:#9c8573;fill-opacity:1;stroke:none;stroke-opacity:1" />
      <path
         id="path5630"
         d="m 414.28516,850.98047 a 55.667019,57.095592 0 0 0 -52.57618,38.52539 l 105.14649,0 a 55.667019,57.095592 0 0 0 -52.57031,-38.52539 z"
         style="fill:#9c8573;fill-opacity:1;stroke:none;stroke-width:1.09452748;stroke-opacity:1"
         inkscape:connector-curvature="0" />
    </g>
  </g>
</svg>
