<?xml version="1.0" encoding="UTF-8" standalone="no"?>
<!-- Created with Inkscape (http://www.inkscape.org/) -->

<svg
   xmlns:osb="http://www.openswatchbook.org/uri/2009/osb"
   xmlns:dc="http://purl.org/dc/elements/1.1/"
   xmlns:cc="http://creativecommons.org/ns#"
   xmlns:rdf="http://www.w3.org/1999/02/22-rdf-syntax-ns#"
   xmlns:svg="http://www.w3.org/2000/svg"
   xmlns="http://www.w3.org/2000/svg"
   xmlns:sodipodi="http://sodipodi.sourceforge.net/DTD/sodipodi-0.dtd"
   xmlns:inkscape="http://www.inkscape.org/namespaces/inkscape"
   width="77.255844mm"
   height="77.255844mm"
   viewBox="0 0 273.74118 273.74118"
   id="svg2"
   version="1.1"
   inkscape:version="0.91 r13725"
   sodipodi:docname="hero.svg">
  <defs
     id="defs4">
    <linearGradient
       id="linearGradient5592"
       osb:paint="solid">
      <stop
         style="stop-color:#00ffff;stop-opacity:1;"
         offset="0"
         id="stop5594" />
    </linearGradient>
  </defs>
  <sodipodi:namedview
     id="base"
     pagecolor="#ffffff"
     bordercolor="#666666"
     borderopacity="1.0"
     inkscape:pageopacity="0.0"
     inkscape:pageshadow="2"
     inkscape:zoom="0.7"
     inkscape:cx="-218.14692"
     inkscape:cy="-22.678004"
     inkscape:document-units="px"
     inkscape:current-layer="layer1"
     showgrid="false"
     inkscape:window-width="1920"
     inkscape:window-height="1058"
     inkscape:window-x="1912"
     inkscape:window-y="-8"
     inkscape:window-maximized="1"
     fit-margin-top="0"
     fit-margin-left="0"
     fit-margin-right="0"
     fit-margin-bottom="0" />
  <metadata
     id="metadata7">
    <rdf:RDF>
      <cc:Work
         rdf:about="">
        <dc:format>image/svg+xml</dc:format>
        <dc:type
           rdf:resource="http://purl.org/dc/dcmitype/StillImage" />
        <dc:title></dc:title>
      </cc:Work>
    </rdf:RDF>
  </metadata>
  <g
     inkscape:label="Layer 1"
     inkscape:groupmode="layer"
     id="layer1"
     transform="translate(-399.5204,-124.54216)">
    <circle
       r="136.37059"
       cy="261.41275"
       cx="536.39099"
       id="circle5708"
       style="fill:#c8b7b7;fill-opacity:0.17419356;stroke:#000000;stroke-opacity:0.43870969" />
    <g
       id="g5772"
       style="fill:#646d8d;fill-opacity:0.98823529"
       transform="matrix(1.5141579,0.49354808,-0.52177824,1.3476054,170.99645,-1030.7818)"
       inkscape:transform-center-x="13.120064"
       inkscape:transform-center-y="42.857641">
      <path
         sodipodi:nodetypes="ccscscscccccscscsccscc"
         inkscape:connector-curvature="0"
         d="m 465.35356,722.18476 c 8.74696,6.91197 15.6748,15.0242 23.11725,24.61115 1.33768,2.22831 6.93894,9.61482 8.20308,11.6691 3.7604,6.1108 7.84407,11.96954 12.0192,17.80001 5.16641,7.03093 10.86949,13.69757 17.39254,19.51278 3.32327,2.96265 4.47798,3.67206 7.99618,6.22428 5.62917,3.82716 11.84261,6.87361 18.37164,8.83633 1.10065,0.33087 2.22333,0.58343 3.335,0.87514 3.89761,0.83518 7.86245,1.34531 11.83313,1.67214 l -17.92023,12.67585 0,0 c -3.79069,-0.66709 -7.57568,-1.4018 -11.28023,-2.45862 -1.11151,-0.34794 -2.23502,-0.65961 -3.33452,-1.04382 -6.51953,-2.2782 -12.69505,-5.57957 -18.24165,-9.68268 -1.26004,-1.02362 -2.55733,-2.00302 -3.78013,-3.07085 -7.97529,-6.96459 -14.63633,-15.30128 -20.93955,-23.75941 -1.39899,-1.95982 -2.81888,-3.90489 -4.19698,-5.87946 -6.21704,-8.90788 -11.93384,-18.15539 -18.28888,-26.96793 -4.95102,-6.55006 -9.99997,-13.05301 -15.73748,-18.94324 -2.37414,-2.40961 -2.75261,-2.61475 -2.84189,-6.41778 -0.0501,-2.13411 -1.43964,-10.19698 -3.0462,-11.22677 z"
         id="path5766"
         style="fill:#646d8d;fill-opacity:0.98823529;stroke:none;stroke-opacity:1" />
      <rect
         transform="matrix(0.74913085,0.66242205,-0.66019624,0.75109315,0,0)"
         y="230.49223"
         x="909.87427"
         height="51.12085"
         width="21.028572"
         id="rect5770"
         style="fill:#646d8d;fill-opacity:0.98823529;stroke:none;stroke-opacity:1" />
    </g>
  </g>
</svg>
